<?xml version="1.0" standalone="no"?>
<!DOCTYPE svg PUBLIC "-//W3C//DTD SVG 20010904//EN"
 "http://www.w3.org/TR/2001/REC-SVG-20010904/DTD/svg10.dtd">
<svg version="1.0" xmlns="http://www.w3.org/2000/svg"
 width="4478.000000pt" height="3358.000000pt" viewBox="0 0 4478.000000 3358.000000"
 preserveAspectRatio="xMidYMid meet">

<g transform="translate(0.000000,3358.000000) scale(0.100000,-0.100000)"
fill="#000000" stroke="none">
<path d="M9349 22471 c-317 -69 -600 -301 -719 -588 -88 -211 -104 -450 -44
-668 4 -18 -133 -101 -1140 -688 -630 -367 -1152 -670 -1160 -673 -10 -4 -36
12 -73 47 -106 96 -284 192 -428 230 -174 46 -403 35 -578 -27 -311 -111 -559
-385 -637 -704 -43 -176 -37 -384 17 -555 100 -318 331 -554 645 -659 l73 -25
3 -1350 2 -1349 -67 -22 c-349 -115 -609 -412 -678 -772 -21 -111 -19 -291 4
-403 53 -256 206 -486 421 -632 185 -126 436 -189 655 -164 222 25 385 96 552
240 40 34 79 61 86 59 7 -2 530 -304 1161 -672 1117 -652 1147 -670 1141 -695
-57 -223 -44 -443 38 -644 120 -294 370 -513 685 -599 104 -29 362 -31 466 -5
406 102 706 433 766 846 15 101 8 276 -15 385 -9 43 -15 79 -13 81 2 1 517
303 1146 669 l1143 667 62 -58 c252 -235 569 -326 897 -258 464 98 790 506
790 990 0 426 -248 788 -650 946 l-110 43 2 1349 3 1348 90 30 c333 112 564
364 657 717 32 123 32 347 0 475 -75 300 -269 542 -538 673 -143 70 -260 96
-429 98 -186 1 -298 -25 -459 -106 -98 -49 -147 -82 -220 -148 -30 -29 -62
-50 -69 -48 -7 2 -530 304 -1161 672 l-1148 669 7 31 c38 178 44 293 20 427
-69 394 -335 691 -720 805 -124 36 -347 43 -476 15z m-491 -1713 c7 -10 -400
-729 -1500 -2648 -830 -1449 -1513 -2641 -1517 -2649 -5 -8 -16 -11 -30 -6
l-21 6 0 1350 c0 1071 3 1350 13 1353 216 63 415 199 549 375 67 89 143 247
170 356 27 109 32 347 9 458 -7 37 -12 70 -9 72 8 9 2313 1345 2319 1345 4 0
11 -6 17 -12z m2575 -659 c634 -369 1153 -672 1154 -673 2 -1 -4 -34 -11 -72
-24 -116 -28 -206 -16 -309 28 -231 114 -422 269 -597 92 -104 273 -218 424
-267 l67 -23 0 -1348 0 -1348 -22 -6 c-13 -3 -26 -2 -29 2 -26 28 -3019 5289
-3015 5299 3 7 10 13 16 13 6 0 530 -302 1163 -671z m-2073 396 c99 -28 251
-30 369 -6 57 12 107 18 111 14 4 -4 687 -1195 1518 -2646 l1511 -2639 -75
-86 c-79 -92 -145 -210 -187 -337 l-24 -70 -3025 -3 -3024 -2 -18 57 c-43 137
-112 261 -214 381 l-53 63 1513 2644 c942 1646 1519 2644 1528 2644 8 1 40 -6
70 -14z m3225 -6267 c16 -48 45 -30 -1134 -723 l-1145 -673 -65 60 c-127 116
-268 193 -439 240 -111 31 -353 31 -464 0 -164 -45 -297 -114 -422 -219 l-77
-64 -1160 673 c-994 577 -1159 676 -1159 696 l0 22 3030 0 c2416 0 3031 -3
3035 -12z"/>
<path d="M18060 20964 c-241 -31 -468 -112 -653 -234 -43 -29 -121 -93 -173
-143 -252 -240 -399 -543 -460 -947 -22 -140 -24 -460 -5 -600 87 -642 426
-1090 961 -1271 170 -58 282 -74 520 -74 182 0 232 4 325 23 558 112 919 459
1035 997 18 80 23 146 27 328 3 125 2 265 -2 312 l-7 85 -664 0 -664 0 0 -255
0 -255 335 0 335 0 0 -37 c0 -21 -7 -69 -15 -108 -47 -223 -220 -394 -471
-467 -68 -20 -102 -23 -239 -23 -140 0 -169 3 -235 23 -266 83 -446 284 -525
584 -39 150 -49 242 -49 433 1 260 36 440 121 610 147 295 391 437 723 422
137 -6 207 -23 318 -78 134 -66 257 -205 310 -351 l17 -48 344 0 344 0 -7 51
c-16 121 -86 295 -169 423 -198 301 -499 499 -883 577 -97 19 -406 34 -494 23z"/>
<path d="M31700 20954 c-441 -64 -805 -308 -1024 -689 -243 -423 -294 -1073
-126 -1588 149 -452 471 -781 904 -922 172 -56 275 -70 501 -69 214 0 311 14
474 67 l72 24 125 -161 125 -161 319 3 320 3 -230 286 -229 287 79 83 c294
311 447 773 427 1293 -7 176 -25 303 -62 452 -154 605 -593 1007 -1195 1093
-128 18 -352 18 -480 -1z m390 -585 c371 -60 608 -361 660 -841 38 -357 -52
-774 -207 -956 l-28 -33 -118 151 -118 150 -285 0 c-234 0 -284 -2 -277 -13 4
-8 95 -127 202 -266 106 -139 190 -255 186 -259 -4 -4 -75 -7 -158 -7 -177 0
-238 13 -365 76 -304 153 -472 544 -448 1044 26 540 251 870 646 950 81 16
224 18 310 4z"/>
<path d="M27740 19325 l0 -1605 330 0 330 0 0 725 c0 622 2 737 16 802 47 228
207 362 435 363 241 1 390 -125 429 -362 6 -39 10 -342 10 -785 l0 -723 330 0
331 0 -4 863 c-4 927 -2 894 -56 1050 -63 182 -193 332 -361 417 -235 118
-567 115 -805 -8 -97 -50 -227 -181 -278 -279 -69 -132 -67 -147 -67 537 l0
610 -320 0 -320 0 0 -1605z"/>
<path d="M34080 19325 l0 -1605 1020 0 1020 0 0 285 0 285 -685 0 -685 0 0
1320 0 1320 -335 0 -335 0 0 -1605z"/>
<path d="M21381 20145 c-194 -35 -349 -168 -427 -365 -46 -119 -54 -99 -54
140 l0 210 -320 0 -320 0 0 -1200 0 -1200 330 0 329 0 3 733 c3 719 4 733 25
788 31 84 47 110 97 166 128 142 327 192 517 131 l77 -25 97 268 c53 148 94
273 91 278 -11 18 -160 69 -233 80 -88 13 -118 13 -212 -4z"/>
<path d="M23006 20149 c-443 -46 -751 -267 -860 -618 -15 -46 -25 -85 -24 -87
4 -3 546 -44 586 -44 25 0 32 7 53 52 47 101 153 180 280 208 32 7 97 11 156
8 88 -3 107 -7 166 -36 92 -46 133 -108 152 -228 9 -58 -9 -118 -45 -147 -64
-54 -174 -79 -510 -117 -392 -44 -597 -118 -750 -270 -73 -73 -128 -168 -156
-270 -24 -89 -25 -297 -1 -395 49 -195 187 -358 372 -441 161 -71 420 -94 609
-56 97 21 209 66 283 116 55 38 150 134 186 189 16 26 34 47 39 47 4 0 8 -76
8 -170 l0 -170 315 0 316 0 -4 883 c-3 996 1 933 -84 1107 -109 219 -342 372
-648 424 -116 20 -325 27 -439 15z m504 -1629 c-29 -166 -169 -306 -350 -351
-78 -19 -222 -17 -292 4 -122 37 -198 133 -198 250 0 81 17 130 61 180 69 79
179 121 399 152 150 21 279 49 332 73 l43 18 7 -135 c4 -77 3 -160 -2 -191z"/>
<path d="M26084 20150 c-94 -13 -141 -28 -233 -72 -105 -50 -226 -166 -290
-275 -66 -115 -71 -107 -71 127 l0 200 -330 0 -330 0 0 -1650 0 -1650 330 0
330 0 0 640 c0 355 4 640 9 640 4 0 26 -30 47 -67 55 -96 190 -229 279 -275
116 -60 194 -80 335 -85 314 -12 578 113 762 361 219 295 301 793 207 1258
-103 510 -438 831 -889 852 -52 3 -123 1 -156 -4z m15 -525 c174 -41 301 -181
360 -395 63 -228 40 -539 -55 -737 -39 -81 -123 -179 -187 -216 -127 -75 -334
-77 -457 -5 -54 32 -128 107 -165 169 -46 74 -91 214 -106 324 -17 129 -7 359
20 459 45 163 139 299 250 360 96 52 226 67 340 41z"/>
<path d="M34750 16251 c-56 -11 -121 -52 -157 -99 -125 -165 -5 -394 207 -394
175 0 295 157 246 324 -34 118 -168 194 -296 169z"/>
<path d="M29060 15585 c0 -327 -4 -595 -8 -595 -4 0 -30 34 -57 76 -66 101
-173 200 -267 247 -117 59 -210 79 -373 80 -222 1 -381 -44 -544 -153 -240
-161 -392 -418 -459 -775 -12 -67 -17 -146 -17 -305 0 -231 11 -314 60 -485
99 -340 337 -607 628 -703 129 -43 220 -55 362 -49 219 10 356 67 495 207 47
47 102 112 121 145 23 40 42 61 57 63 l22 3 0 -185 0 -186 175 0 175 0 0 1605
0 1605 -185 0 -185 0 0 -595z m-485 -541 c327 -80 515 -401 515 -879 0 -489
-208 -829 -550 -901 -106 -22 -251 -14 -350 20 -302 104 -482 430 -482 876 0
236 40 420 126 574 47 85 151 196 225 240 144 88 337 114 516 70z"/>
<path d="M17030 14565 l0 -1605 190 0 190 0 0 715 0 715 695 0 695 0 0 175 0
175 -695 0 -695 0 0 540 0 540 765 0 765 0 0 175 0 175 -955 0 -955 0 0 -1605z"/>
<path d="M33020 15645 l0 -285 -180 0 -180 0 0 -155 0 -155 180 0 180 0 0
-787 c0 -864 0 -863 60 -988 67 -141 194 -250 359 -309 82 -29 94 -31 236 -31
116 0 163 4 208 18 31 10 57 20 57 22 0 4 -48 226 -65 302 -5 21 -9 22 -138
20 -117 -1 -138 2 -182 22 -65 29 -108 71 -137 135 l-23 51 -3 773 -3 772 261
0 260 0 0 155 0 155 -260 0 -260 0 0 285 0 285 -185 0 -185 0 0 -285z"/>
<path d="M20260 15389 c-433 -50 -774 -359 -894 -812 -41 -155 -50 -232 -50
-427 0 -213 16 -327 69 -487 66 -197 143 -323 280 -458 206 -203 464 -295 789
-282 410 16 721 215 896 572 110 223 146 408 137 705 -6 204 -24 314 -78 467
-178 507 -617 783 -1149 722z m315 -334 c218 -55 384 -212 475 -446 52 -134
73 -264 73 -439 0 -178 -22 -305 -77 -452 -46 -121 -89 -190 -176 -279 -59
-60 -93 -85 -160 -118 -297 -145 -663 -62 -844 192 -125 175 -186 388 -186
652 0 203 32 358 104 510 97 205 234 324 430 375 91 24 276 26 361 5z"/>
<path d="M25780 15394 c-14 -2 -56 -9 -95 -15 -208 -33 -400 -167 -483 -336
-17 -35 -32 -53 -44 -53 -17 0 -18 14 -18 185 l0 185 -175 0 -175 0 0 -1200 0
-1200 179 0 180 0 4 793 c3 711 5 799 21 857 60 226 212 381 426 436 89 23
256 23 335 0 185 -54 303 -178 362 -381 16 -55 18 -135 21 -877 l3 -818 179 0
180 0 0 834 c0 904 -1 920 -56 1085 -85 255 -281 431 -542 486 -69 15 -258 27
-302 19z"/>
<path d="M31055 15393 c-310 -26 -577 -155 -725 -351 -49 -65 -126 -200 -118
-207 3 -3 337 -125 343 -125 1 0 18 26 38 59 79 127 225 230 386 273 100 26
288 28 380 4 218 -56 331 -209 331 -448 0 -83 -1 -89 -31 -123 -40 -45 -114
-68 -290 -90 -74 -9 -208 -25 -299 -36 -290 -35 -461 -78 -600 -150 -238 -123
-338 -306 -327 -594 3 -96 10 -136 32 -204 79 -234 265 -396 533 -464 72 -18
115 -21 247 -21 170 0 257 16 371 65 120 53 270 180 319 272 38 71 45 51 45
-128 l0 -165 180 0 181 0 -3 898 c-3 892 -3 897 -26 977 -59 214 -183 370
-362 458 -169 83 -385 119 -605 100z m627 -1375 c4 -228 -1 -285 -28 -366 -32
-97 -76 -163 -157 -239 -113 -106 -251 -159 -437 -170 -355 -20 -588 165 -550
438 28 204 210 315 595 363 283 35 456 70 524 106 20 11 39 19 44 20 4 0 8
-69 9 -152z"/>
<path d="M36580 15389 c-41 -5 -115 -20 -165 -34 -403 -115 -676 -445 -761
-920 -24 -133 -24 -421 -1 -555 34 -197 104 -381 197 -521 100 -149 283 -296
452 -363 147 -58 227 -71 428 -70 166 1 195 3 282 27 106 28 239 86 315 138
221 149 380 394 448 689 43 190 49 448 15 644 -96 557 -441 909 -945 966 -102
11 -158 11 -265 -1z m319 -335 c183 -46 332 -166 427 -347 171 -326 160 -816
-28 -1135 -42 -73 -168 -200 -233 -236 -182 -101 -435 -113 -622 -31 -276 122
-443 447 -443 860 0 200 35 363 110 520 95 196 233 315 424 365 93 25 274 26
365 4z"/>
<path d="M39365 15389 c-235 -31 -425 -151 -529 -331 -26 -46 -45 -68 -57 -68
-18 0 -19 11 -19 185 l0 185 -175 0 -175 0 0 -1200 0 -1200 185 0 185 0 0 749
c0 479 4 777 11 827 37 266 193 448 439 510 86 22 245 22 329 0 190 -49 319
-189 365 -393 14 -63 16 -175 16 -877 l0 -806 185 0 186 0 -3 868 -3 867 -28
100 c-14 55 -48 143 -73 195 -39 79 -62 110 -133 181 -70 70 -102 94 -171 127
-47 23 -123 50 -169 61 -100 24 -269 33 -366 20z"/>
<path d="M22080 14623 c0 -406 5 -801 10 -878 25 -370 163 -615 415 -739 118
-58 180 -71 355 -71 183 0 238 12 380 81 79 40 109 62 185 138 51 50 106 117
124 149 56 98 61 85 61 -148 l0 -205 180 0 180 0 0 1200 0 1200 -179 0 -180 0
-3 -762 c-4 -686 -6 -769 -21 -823 -66 -230 -233 -395 -457 -451 -79 -20 -206
-22 -280 -5 -144 34 -271 139 -336 275 -62 131 -63 146 -64 1004 l0 772 -185
0 -185 0 0 -737z"/>
<path d="M34610 14160 l0 -1200 185 0 185 0 0 1200 0 1200 -185 0 -185 0 0
-1200z"/>
</g>
</svg>
