<?xml version="1.0" standalone="no"?>
<!DOCTYPE svg PUBLIC "-//W3C//DTD SVG 20010904//EN"
 "http://www.w3.org/TR/2001/REC-SVG-20010904/DTD/svg10.dtd">
<svg version="1.0" xmlns="http://www.w3.org/2000/svg"
 width="2048.000000pt" height="1536.000000pt" viewBox="0 0 2048.000000 1536.000000"
 preserveAspectRatio="xMidYMid meet">

<g transform="translate(0.000000,1536.000000) scale(0.100000,-0.100000)"
fill="#000000" stroke="none">
<path d="M11023 13134 c35 -198 34 -422 -3 -564 -90 -344 -312 -616 -840
-1030 -383 -301 -504 -403 -644 -551 -199 -209 -276 -367 -276 -564 0 -280
182 -584 601 -1004 151 -152 380 -363 387 -356 6 6 -132 235 -196 324 -328
455 -425 682 -400 939 14 149 79 301 198 464 63 86 233 255 375 372 66 55 145
120 175 145 228 189 432 408 566 611 195 292 275 590 230 850 -24 139 -86 288
-152 365 l-26 30 5 -31z"/>
<path d="M11745 11576 c-231 -77 -409 -149 -580 -236 -509 -258 -795 -539
-876 -860 -18 -71 -21 -103 -16 -200 11 -234 94 -416 313 -686 125 -156 160
-244 152 -387 -8 -127 -67 -254 -169 -366 -26 -28 -43 -51 -39 -51 11 0 179
119 256 181 248 201 365 438 321 650 -21 104 -48 155 -187 354 -139 198 -194
303 -216 406 -19 89 -13 154 21 245 90 239 359 477 970 859 121 75 222 139
224 141 10 10 -24 0 -174 -50z"/>
<path d="M12273 9086 c-39 -8 -94 -21 -121 -30 -51 -17 -138 -73 -129 -83 3
-2 49 5 102 17 114 27 208 24 298 -10 125 -47 235 -149 279 -260 33 -82 31
-230 -4 -322 -89 -234 -338 -472 -711 -678 -52 -28 -107 -63 -123 -76 l-29
-23 75 20 c366 97 697 263 890 446 179 168 267 386 230 568 -40 199 -206 363
-425 421 -83 22 -244 27 -332 10z"/>
<path d="M9235 9023 c-332 -20 -669 -108 -993 -259 -126 -59 -172 -96 -172
-139 0 -144 512 -239 1360 -252 689 -11 1342 39 1852 143 194 39 239 54 325
105 45 27 115 65 155 84 76 35 70 42 -23 25 -105 -20 -628 -89 -824 -109 -495
-50 -1067 -76 -1490 -67 -427 8 -652 35 -765 90 -36 18 -46 28 -48 52 -8 76
168 160 578 279 187 55 189 57 45 48z"/>
<path d="M8975 8136 c-571 -220 -312 -476 565 -557 165 -15 656 -15 845 0 219
18 517 57 695 92 136 26 469 106 478 114 2 2 -29 20 -70 42 -40 21 -107 62
-148 92 l-75 54 -230 -37 c-491 -78 -640 -91 -1070 -91 -489 1 -818 31 -924
85 -91 46 -95 113 -13 203 31 33 25 33 -53 3z"/>
<path d="M9140 7307 c-79 -30 -151 -67 -191 -99 -25 -21 -59 -81 -59 -106 0
-114 233 -246 551 -312 200 -41 302 -51 570 -57 427 -9 738 29 1104 135 90 27
281 94 312 111 8 4 -15 19 -55 35 -37 16 -128 60 -202 97 -74 38 -145 69 -157
69 -12 0 -86 -11 -165 -25 -411 -71 -755 -90 -1114 -61 -338 28 -477 54 -533
102 -40 33 -40 64 0 109 17 19 29 35 28 35 -2 -1 -42 -15 -89 -33z"/>
<path d="M8350 6790 c-229 -28 -547 -131 -711 -231 -123 -75 -179 -138 -179
-201 0 -92 121 -150 405 -197 391 -65 798 -109 1310 -143 255 -17 1190 -17
1435 0 828 58 1482 181 1852 350 164 74 255 161 244 231 -6 37 -45 84 -90 108
-27 14 -28 14 -21 -3 27 -68 27 -73 6 -116 -13 -27 -38 -55 -69 -76 -195 -132
-779 -231 -1732 -293 -262 -17 -1172 -23 -1441 -10 -421 21 -690 47 -936 92
-285 51 -493 128 -493 182 0 7 9 26 19 43 21 35 148 105 266 147 87 31 276 73
370 83 l70 7 -40 14 c-53 18 -172 24 -265 13z"/>
<path d="M12975 6277 c-33 -27 -82 -60 -110 -75 -733 -387 -2677 -563 -4155
-376 -107 13 -204 27 -215 29 -11 3 2 -6 28 -20 124 -67 499 -135 897 -165
936 -68 2005 -20 2688 121 257 53 436 111 605 195 109 54 147 80 214 145 49
48 120 166 112 187 -2 4 -31 -14 -64 -41z"/>
<path d="M7801 5142 l-128 -3 -7 -138 c-3 -76 -6 -572 -6 -1102 0 -1060 -1
-1092 -58 -1212 -44 -95 -182 -235 -285 -288 l-28 -15 91 -102 91 -103 110 58
c165 85 291 200 362 331 40 73 74 207 86 333 7 72 11 502 11 1176 l0 1061 -55
4 c-31 1 -113 2 -184 0z"/>
<path d="M12958 4573 c20 -4 22 -10 22 -69 0 -36 4 -64 10 -64 6 0 10 28 10
64 0 59 2 65 23 69 12 2 -3 4 -33 4 -30 0 -45 -2 -32 -4z"/>
<path d="M13070 4563 c0 -10 -3 -42 -6 -70 -4 -36 -3 -53 5 -53 7 0 11 20 11
51 0 60 12 57 30 -6 7 -25 17 -44 23 -42 6 2 20 28 31 58 l21 54 3 -57 c2 -32
8 -58 13 -58 9 0 3 128 -7 139 -8 9 -24 -15 -40 -61 -14 -44 -19 -49 -25 -33
-5 11 -15 37 -23 58 -16 39 -36 50 -36 20z"/>
<path d="M8845 4549 c-130 -17 -420 -100 -447 -127 -3 -4 5 -55 18 -113 l25
-106 107 33 c143 43 274 64 397 64 184 0 276 -41 330 -146 28 -53 30 -66 33
-184 l4 -127 -159 -7 c-263 -11 -403 -40 -549 -112 -196 -96 -303 -264 -304
-475 -1 -314 207 -494 550 -475 119 6 182 21 274 64 65 31 173 99 213 134 21
20 21 20 26 -9 3 -15 9 -50 12 -78 11 -90 0 -84 150 -84 l135 0 0 672 c0 725
0 720 -54 832 -51 102 -174 192 -316 229 -78 21 -340 30 -445 15z m465 -1142
c0 -233 9 -210 -109 -286 -162 -104 -341 -120 -452 -39 -93 67 -123 237 -63
356 63 122 192 169 477 171 l147 1 0 -203z"/>
<path d="M12090 4550 c-129 -18 -296 -64 -431 -118 l-27 -11 24 -101 c13 -56
24 -106 24 -111 0 -5 12 -4 26 1 151 58 362 94 513 87 135 -5 196 -24 252 -77
57 -55 79 -128 79 -264 l0 -113 -151 -6 c-449 -20 -694 -126 -804 -351 -85
-171 -67 -410 42 -553 38 -50 133 -109 218 -136 91 -29 295 -30 394 -3 85 23
203 83 284 145 74 56 70 58 83 -54 4 -33 11 -66 17 -72 7 -9 47 -13 138 -13
l129 0 0 73 c2 995 -1 1277 -15 1332 -43 163 -165 279 -351 330 -70 19 -345
29 -444 15z m462 -1137 l3 -198 -44 -42 c-51 -49 -161 -107 -241 -128 -107
-29 -227 -11 -290 42 -52 43 -73 97 -78 196 -6 111 11 158 76 219 83 78 194
106 419 107 l152 1 3 -197z"/>
<path d="M9880 4523 c0 -5 29 -100 64 -213 34 -113 152 -495 261 -850 110
-355 204 -648 210 -652 5 -4 105 -6 220 -5 l210 2 37 75 c21 41 70 156 109
255 156 391 277 802 363 1230 15 72 28 138 30 148 4 16 -10 17 -184 17 l-187
0 -17 -112 c-27 -174 -72 -395 -121 -590 -66 -262 -191 -658 -207 -658 -3 0
-23 69 -43 153 -20 83 -85 310 -145 502 -60 193 -133 429 -163 525 l-53 175
-192 3 c-106 1 -192 -1 -192 -5z"/>
</g>
</svg>
