<?xml version="1.0" standalone="no"?>
<!DOCTYPE svg PUBLIC "-//W3C//DTD SVG 20010904//EN"
 "http://www.w3.org/TR/2001/REC-SVG-20010904/DTD/svg10.dtd">
<svg version="1.0" xmlns="http://www.w3.org/2000/svg"
 width="2048.000000pt" height="1536.000000pt" viewBox="0 0 2048.000000 1536.000000"
 preserveAspectRatio="xMidYMid meet">

<g transform="translate(0.000000,1536.000000) scale(0.100000,-0.100000)"
fill="#000000" stroke="none">
<path d="M9971 13399 c-1402 -66 -2717 -637 -3720 -1614 -1381 -1345 -1989
-3258 -1640 -5160 176 -957 599 -1850 1245 -2630 138 -167 531 -560 699 -699
929 -772 1994 -1212 3195 -1322 251 -23 729 -23 980 0 976 89 1855 394 2655
920 1272 837 2159 2143 2464 3626 133 647 152 1351 55 2005 -156 1050 -586
2005 -1280 2840 -139 168 -532 561 -699 699 -1000 829 -2147 1274 -3445 1336
-226 11 -269 11 -509 -1z m-1686 -2419 c209 -65 366 -200 460 -395 54 -112 75
-205 75 -333 0 -223 -97 -432 -268 -575 -68 -57 -212 -130 -302 -154 -98 -25
-264 -23 -364 6 -274 77 -483 299 -540 573 -84 407 177 809 583 894 94 19 266
12 356 -16z m3905 -1894 c339 -46 607 -171 816 -381 236 -238 380 -589 414
-1009 6 -80 10 -630 10 -1457 l0 -1329 -630 0 -630 0 0 1129 c0 1230 -2 1269
-56 1443 -60 193 -165 328 -308 398 -100 50 -191 70 -318 70 -377 1 -624 -191
-726 -565 l-27 -100 -3 -1187 -3 -1188 -609 0 -610 0 0 2035 0 2035 608 -2
607 -3 3 -264 2 -264 51 72 c99 141 286 308 444 396 149 83 322 143 490 169
118 18 344 19 475 2z m-3480 -2141 l0 -2035 -630 0 -630 0 0 2035 0 2035 630
0 630 0 0 -2035z"/>
</g>
</svg>
