<?xml version="1.0" encoding="UTF-8"?>
<!DOCTYPE svg PUBLIC "-//W3C//DTD SVG 1.1//EN" "http://www.w3.org/Graphics/SVG/1.1/DTD/svg11.dtd">
<!-- Creator: CorelDRAW -->
<svg xmlns="http://www.w3.org/2000/svg" xml:space="preserve" width="4.01476in" height="1.0128in" version="1.1" style="shape-rendering:geometricPrecision; text-rendering:geometricPrecision; image-rendering:optimizeQuality; fill-rule:evenodd; clip-rule:evenodd"
viewBox="0 0 4009.15 1011.38"
 xmlns:xlink="http://www.w3.org/1999/xlink"
 xmlns:xodm="http://www.corel.com/coreldraw/odm/2003">
 <defs>
  <style type="text/css">
   <![CDATA[
    .fil0 {fill:#001E2B;fill-rule:nonzero}
   ]]>
  </style>
 </defs>
 <g id="Layer_x0020_1">
  <metadata id="CorelCorpID_0Corel-Layer"/>
  <g id="MongoDB">
   <path class="fil0" d="M299.5 104.21c-39.24,-46.56 -73.04,-93.85 -79.94,-103.66 -0.73,-0.73 -1.82,-0.73 -2.54,0 -6.9,9.82 -40.7,57.11 -79.94,103.66 -336.82,429.57 53.05,719.47 53.05,719.47l3.27 2.18c2.91,44.74 10.17,109.12 10.17,109.12l14.53 0 14.53 0c0,0 7.27,-64.02 10.17,-109.12l3.27 -2.54c0.36,0.36 390.23,-289.54 53.41,-719.11zm-81.39 712.92c0,0 -17.44,-14.91 -22.17,-22.55l0 -0.73 21.08 -467.76c0,-1.45 2.18,-1.45 2.18,0l21.07 467.76 0 0.73c-4.72,7.63 -22.16,22.55 -22.16,22.55z"/>
   <path class="fil0" d="M947.72 721.68l-162.46 -396.8 -0.37 -1.1 -126.4 0 0 26.67 20.4 0c6.19,0 12.02,2.56 16.39,6.94 4.37,4.38 6.55,10.23 6.55,16.44l-3.64 399.35c0,12.42 -10.2,22.65 -22.59,23.02l-20.76 0.37 0 26.31 123.12 0 0 -26.31 -12.75 -0.37c-12.38,-0.37 -22.59,-10.6 -22.59,-23.02l0 -376.34 177.04 426.02c2.54,6.21 8.37,10.23 14.93,10.23 6.56,0 12.38,-4.02 14.94,-10.23l173.03 -416.52 2.55 366.84c0,12.79 -10.2,23.02 -22.95,23.38l-13.12 0 0 26.31 144.25 0 0 -26.31 -19.67 0c-12.38,0 -22.59,-10.6 -22.95,-23.02l-1.09 -399.35c0,-12.79 10.2,-23.02 22.59,-23.38l21.12 -0.37 0 -26.67 -123.12 0 -162.46 397.89z"/>
   <path class="fil0" d="M2080.5 789.63c-4.02,-4.03 -6.21,-9.51 -6.21,-16.1l0 -196.18c0,-37.33 -10.96,-66.61 -32.87,-87.47 -21.54,-20.86 -51.49,-31.48 -88.74,-31.48 -52.23,0 -93.5,21.23 -122.35,62.96 -0.37,0.73 -1.46,1.1 -2.56,1.1 -1.1,0 -1.82,-0.74 -1.82,-1.83l-13.52 -52.34 -22.64 0 -58.07 33.3 0 18.3 14.98 0c6.94,0 12.78,1.83 16.8,5.49 4.01,3.66 6.21,9.15 6.21,16.83l0 230.95c0,6.59 -2.19,12.08 -6.21,16.1 -4.02,4.03 -9.49,6.22 -16.07,6.22l-14.61 0 0 26.72 133.67 0 0 -26.72 -14.61 0c-6.58,0 -12.05,-2.2 -16.07,-6.22 -4.01,-4.03 -6.21,-9.51 -6.21,-16.1l0 -152.99c0,-19.4 4.38,-38.8 12.42,-57.83 8.4,-18.66 20.81,-34.4 37.25,-46.48 16.43,-12.08 36.15,-17.94 58.8,-17.94 25.56,0 44.92,8.05 56.97,24.16 12.05,16.1 18.26,36.96 18.26,61.85l0 188.86c0,6.59 -2.19,12.07 -6.21,16.1 -4.01,4.03 -9.49,6.22 -16.07,6.22l-14.61 0 0 26.72 133.66 0 0 -26.72 -14.61 0c-5.48,0.74 -10.6,-1.46 -14.98,-5.49z"/>
   <path class="fil0" d="M3301.71 353.66c-36.95,-19.67 -78.24,-29.88 -122.8,-29.88l-173.87 0 0 26.6 17.03 0c6.52,0 12.31,2.55 18.11,8.38 5.44,5.46 8.33,11.66 8.33,18.22l0 392.03c0,6.55 -2.9,12.75 -8.33,18.21 -5.43,5.46 -11.59,8.38 -18.11,8.38l-17.03 0 0 26.6 173.87 0c44.56,0 85.85,-10.2 122.8,-29.88 36.94,-19.67 67.01,-48.82 88.75,-85.98 21.73,-37.16 32.96,-81.98 32.96,-132.98 0,-51.01 -11.23,-95.46 -32.96,-132.98 -22.1,-37.89 -51.8,-66.67 -88.75,-86.71zm51.8 218.97c0,46.64 -8.33,85.98 -24.63,117.68 -16.3,31.7 -38.03,55.38 -64.84,70.68 -26.81,15.3 -56.51,22.95 -88.38,22.95l-35.14 0c-6.52,0 -12.31,-2.55 -18.11,-8.38 -5.43,-5.46 -8.33,-11.66 -8.33,-18.21l0 -369.8c0,-6.56 2.54,-12.39 8.33,-18.22 5.43,-5.46 11.59,-8.38 18.11,-8.38l35.14 0c31.88,0 61.58,7.65 88.38,22.96 26.81,15.3 48.54,38.98 64.84,70.68 16.3,32.07 24.63,71.78 24.63,118.05z"/>
   <path class="fil0" d="M3834.41 599.23c-16.08,-18.58 -47.12,-34.25 -83.6,-42.63 50.39,-25.14 76.29,-60.48 76.29,-106.02 0,-24.78 -6.55,-47 -19.72,-65.95 -13.13,-18.95 -31.76,-34.25 -55.48,-44.82 -23.75,-10.56 -51.51,-16.03 -82.91,-16.03l-196.82 0 0 26.6 15.7 0c6.57,0 12.41,2.55 18.26,8.38 5.48,5.46 8.4,11.66 8.4,18.22l0 392.03c0,6.55 -2.92,12.75 -8.4,18.21 -5.48,5.46 -11.69,8.38 -18.26,8.38l-17.16 0 0 26.6 213.63 0c32.49,0 62.79,-5.47 90.18,-16.4 27.39,-10.93 49.3,-26.96 65.01,-48.09 16.05,-21.13 24.08,-47 24.08,-76.87 -0.36,-32.06 -9.86,-59.39 -29.21,-81.61zm-245.02 176.7c-5.48,-5.46 -8.4,-11.66 -8.4,-18.22l0 -175.97 101.53 0c35.76,0 63.16,9.11 82.15,27.32 18.99,18.22 28.48,41.9 28.48,71.05 0,17.49 -4.4,34.61 -12.4,50.28 -8.41,16.03 -20.85,28.78 -37.62,38.62 -16.44,9.84 -36.89,14.94 -60.61,14.94l-74.88 0c-6.57,0 -12.41,-2.55 -18.25,-8.02zm-8.03 -231.72l0 -156.3c0,-6.56 2.55,-12.38 8.39,-18.22 5.48,-5.46 11.69,-8.38 18.26,-8.38l48.2 0c34.67,0 60.25,8.75 76.32,25.5 16.05,17.12 24.09,38.98 24.09,65.95 0,27.69 -7.68,49.91 -22.63,66.67 -14.99,16.4 -37.62,24.78 -67.56,24.78l-85.08 0z"/>
   <path class="fil0" d="M1571.64 481.64c-27.9,-15.25 -59.07,-23.24 -92.77,-23.24 -33.7,0 -65.23,7.63 -92.77,23.24 -27.9,15.25 -50.01,37.39 -66.31,65.35 -16.31,27.96 -24.64,60.64 -24.64,96.95 0,36.31 8.33,68.99 24.64,96.95 16.3,27.96 38.41,50.11 66.31,65.36 27.91,15.25 59.07,23.24 92.77,23.24 33.7,0 65.23,-7.62 92.77,-23.24 27.91,-15.25 50.01,-37.4 66.31,-65.36 16.31,-27.96 24.64,-60.64 24.64,-96.95 0,-36.31 -8.33,-68.99 -24.64,-96.95 -16.3,-27.96 -38.41,-50.11 -66.31,-65.35zm26.82 162.3c0,44.66 -10.87,80.97 -32.62,107.11 -21.38,26.14 -50.73,39.58 -86.97,39.58 -36.23,0 -65.59,-13.43 -86.97,-39.58 -21.74,-26.14 -32.61,-62.45 -32.61,-107.11 0,-44.66 10.87,-80.97 32.61,-107.11 21.38,-26.14 50.74,-39.58 86.97,-39.58 36.24,0 65.59,13.44 86.97,39.58 21.75,26.14 32.62,62.45 32.62,107.11z"/>
   <path class="fil0" d="M2855.88 481.64c-27.9,-15.25 -59.07,-23.24 -92.76,-23.24 -33.7,0 -65.23,7.63 -92.77,23.24 -27.9,15.25 -50.01,37.39 -66.32,65.35 -16.3,27.96 -24.64,60.64 -24.64,96.95 0,36.31 8.33,68.99 24.64,96.95 16.31,27.96 38.41,50.11 66.32,65.36 27.91,15.25 59.07,23.24 92.77,23.24 33.7,0 65.22,-7.62 92.76,-23.24 27.91,-15.25 50.01,-37.4 66.32,-65.36 16.3,-27.96 24.64,-60.64 24.64,-96.95 0,-36.31 -8.33,-68.99 -24.64,-96.95 -16.31,-27.96 -38.78,-50.11 -66.32,-65.35zm26.82 162.3c0,44.66 -10.87,80.97 -32.62,107.11 -21.38,26.14 -50.73,39.58 -86.97,39.58 -36.24,0 -65.59,-13.43 -86.97,-39.58 -21.75,-26.14 -32.62,-62.45 -32.62,-107.11 0,-45.02 10.87,-80.97 32.62,-107.11 21.38,-26.14 50.73,-39.58 86.97,-39.58 36.23,0 65.59,13.44 86.97,39.58 21.38,26.14 32.62,62.45 32.62,107.11z"/>
   <path class="fil0" d="M2337.97 458.39c-29.2,0 -55.84,6.2 -79.92,18.6 -24.09,12.4 -43.07,29.18 -56.57,50.7 -13.5,21.16 -20.44,44.87 -20.44,70.04 0,22.62 5.11,43.41 15.69,62.01 10.22,17.87 24.09,32.83 41.6,45.23l-52.19 70.77c-6.57,8.76 -7.3,20.43 -2.56,29.91 5.11,9.85 14.6,15.69 25.55,15.69l14.96 0c-14.6,9.85 -26.28,21.52 -34.31,35.38 -9.49,15.68 -14.23,32.1 -14.23,48.88 0,31.37 13.87,57.27 41.24,76.61 27.01,19.33 64.96,29.18 112.77,29.18 33.21,0 64.96,-5.47 93.79,-16.05 29.2,-10.58 52.91,-26.26 70.43,-46.69 17.88,-20.43 27.01,-45.23 27.01,-73.68 0,-29.91 -10.95,-51.07 -36.5,-71.49 -21.89,-17.15 -56.2,-26.26 -98.9,-26.26l-145.98 0c-0.37,0 -0.73,-0.37 -0.73,-0.37 0,0 -0.37,-0.73 0,-1.09l37.95 -51.07c10.22,4.74 19.7,7.66 28.1,9.48 8.76,1.82 18.61,2.55 29.56,2.55 30.66,0 58.39,-6.2 82.48,-18.6 24.09,-12.4 43.43,-29.18 57.3,-50.7 13.87,-21.16 20.8,-44.86 20.8,-70.03 0,-26.99 -13.14,-76.24 -48.9,-101.41 0,-0.37 0.37,-0.37 0.37,-0.37l78.46 8.75 0 -36.11 -125.54 0c-19.71,-6.2 -40.14,-9.85 -61.31,-9.85zm43.79 228.35c-13.87,7.29 -28.83,11.31 -43.79,11.31 -24.45,0 -45.99,-8.76 -64.23,-25.9 -18.25,-17.15 -27.37,-42.31 -27.37,-74.42 0,-32.1 9.13,-57.27 27.37,-74.41 18.25,-17.14 39.78,-25.9 64.23,-25.9 15.33,0 29.92,3.65 43.79,11.31 13.87,7.3 25.18,18.6 34.31,33.56 8.76,14.96 13.5,33.56 13.5,55.44 0,22.25 -4.38,40.85 -13.5,55.45 -8.76,14.96 -20.44,26.26 -34.31,33.56zm-98.9 134.23l98.9 0c27.37,0 44.89,5.47 56.57,17.15 11.68,11.67 17.52,27.36 17.52,45.59 0,26.63 -10.58,48.51 -31.75,64.93 -21.17,16.41 -49.64,24.81 -84.67,24.81 -30.66,0 -56.2,-6.93 -74.82,-20.07 -18.61,-13.13 -28.1,-33.19 -28.1,-58.72 0,-16.05 4.38,-31.01 13.14,-44.14 8.76,-13.14 19.34,-22.62 33.21,-29.55z"/>
   <path class="fil0" d="M3937.66 816.11c-7.21,-3.94 -12.62,-9.67 -16.96,-16.47 -3.96,-7.16 -6.14,-14.68 -6.14,-22.91 0,-8.24 2.18,-16.12 6.14,-22.92 3.97,-7.16 9.75,-12.53 16.96,-16.47 7.24,-3.94 15.17,-6.08 24.19,-6.08 9.02,0 16.95,2.15 24.19,6.08 7.2,3.94 12.62,9.67 16.95,16.47 3.97,7.16 6.15,14.68 6.15,22.92 0,8.24 -2.18,16.11 -6.15,22.91 -3.97,7.16 -9.75,12.53 -16.95,16.47 -7.24,3.94 -15.17,6.09 -24.19,6.09 -8.66,0 -16.95,-1.79 -24.19,-6.09zm44.42 -5.01c6.11,-3.22 10.48,-8.24 14.08,-13.96 3.24,-6.09 5.06,-12.89 5.06,-20.41 0,-7.52 -1.82,-14.33 -5.06,-20.41 -3.27,-6.09 -7.97,-10.74 -14.08,-13.96 -6.15,-3.22 -12.66,-5.02 -20.23,-5.02 -7.57,0 -14.08,1.79 -20.23,5.02 -6.11,3.22 -10.48,8.24 -14.08,13.96 -3.24,6.09 -5.06,12.89 -5.06,20.41 0,7.52 1.82,14.32 5.06,20.41 3.27,6.09 7.97,10.74 14.08,13.96 6.15,3.22 12.66,5.01 20.23,5.01 7.57,0 14.44,-1.79 20.23,-5.01zm-39.73 -12.53l0 -3.22 0.73 -0.35 2.18 0c0.69,0 1.42,-0.36 1.78,-0.72 0.73,-0.72 0.73,-1.07 0.73,-1.79l0 -33.3c0,-0.72 -0.37,-1.43 -0.73,-1.79 -0.73,-0.72 -1.09,-0.72 -1.78,-0.72l-2.18 0 -0.73 -0.36 0 -3.22 0.73 -0.35 18.77 0c5.42,0 9.39,1.07 12.62,3.58 3.27,2.51 4.69,5.73 4.69,10.03 0,3.22 -1.06,6.44 -3.6,8.59 -2.51,2.51 -5.42,3.94 -9.02,4.3l4.33 1.44 8.3 13.25c0.73,1.08 1.45,1.43 2.55,1.43l2.15 0 0.36 0.36 0 3.22 -0.36 0.36 -11.17 0 -0.73 -0.36 -11.57 -19.34 -2.87 0 0 12.89c0,0.72 0.36,1.43 0.73,1.79 0.73,0.72 1.09,0.72 1.78,0.72l2.19 0 0.73 0.35 0 3.22 -0.73 0.36 -19.14 0 -0.73 -0.36zm18.41 -23.63c2.91,0 5.42,-0.72 6.87,-2.5 1.42,-1.44 2.51,-3.94 2.51,-6.81 0,-2.87 -0.73,-5.01 -2.15,-6.8 -1.45,-1.79 -3.64,-2.51 -6.15,-2.51l-1.45 0c-0.73,0 -1.42,0.36 -1.78,0.72 -0.73,0.71 -0.73,1.07 -0.73,1.79l0 16.11 2.88 0z"/>
  </g>
 </g>
</svg>
