<?xml version="1.0" encoding="utf-8"?>
<!-- Generator: Adobe Illustrator 26.0.3, SVG Export Plug-In . SVG Version: 6.00 Build 0)  -->
<svg version="1.0" id="katman_1" xmlns="http://www.w3.org/2000/svg" xmlns:xlink="http://www.w3.org/1999/xlink" x="0px" y="0px"
	 viewBox="0 0 201.1 149.7" style="enable-background:new 0 0 201.1 149.7;" xml:space="preserve">
<style type="text/css">
	.st0{fill-rule:evenodd;clip-rule:evenodd;fill:#888888;}
	.st1{fill-rule:evenodd;clip-rule:evenodd;fill:#875A7B;}
</style>
<g>
	<path class="st0" d="M152.4,96.9c9.8,0,17.7-7.9,17.7-17.7c0-9.8-7.9-17.7-17.7-17.7c-9.8,0-17.7,7.9-17.7,17.7l0,0
		C134.7,89,142.6,96.9,152.4,96.9L152.4,96.9z M152.4,89.7c5.8,0,10.5-4.7,10.5-10.4c0-5.8-4.7-10.5-10.4-10.5s-10.5,4.7-10.5,10.4
		l0,0C141.9,85,146.6,89.7,152.4,89.7C152.4,89.7,152.4,89.7,152.4,89.7z"/>
	<path class="st0" d="M114.8,96.9c9.8,0,17.7-7.9,17.7-17.7c0-9.8-7.9-17.7-17.7-17.7s-17.7,7.9-17.7,17.7l0,0
		C97.1,89,105,96.9,114.8,96.9L114.8,96.9z M114.8,89.7c5.8,0,10.5-4.7,10.5-10.4s-4.7-10.5-10.4-10.5c-5.8,0-10.5,4.7-10.5,10.4
		l0,0C104.4,85,109.1,89.7,114.8,89.7C114.8,89.7,114.8,89.7,114.8,89.7z"/>
	<path class="st0" d="M95.5,79.1v0.1c0,9.8-7.9,17.7-17.7,17.7S60.1,89,60.1,79.2c0-9.8,7.9-17.7,17.7-17.7c3.8,0,7.6,1.3,10.7,3.6
		V53.8c0-1.9,1.6-3.5,3.5-3.5c1.9,0,3.5,1.6,3.5,3.5c0,0,0,0,0,0l0,0V79.1z M77.8,89.7c5.8,0,10.5-4.6,10.5-10.4
		c0-5.8-4.6-10.5-10.4-10.5c-5.8,0-10.5,4.6-10.5,10.4l0,0C67.4,84.9,72,89.6,77.8,89.7C77.8,89.7,77.8,89.7,77.8,89.7z"/>
	<path class="st1" d="M41.1,96.9c9.8,0,17.7-7.9,17.7-17.7s-7.9-17.7-17.7-17.7s-17.7,7.9-17.7,17.7S31.3,96.9,41.1,96.9L41.1,96.9z
		 M41,89.7c5.8,0,10.4-4.7,10.4-10.4c0-5.8-4.7-10.4-10.4-10.4c-5.8,0-10.4,4.7-10.4,10.4c0,0,0,0,0,0.1l0,0
		C30.5,85.1,35.2,89.7,41,89.7z"/>
</g>
</svg>
